<?xml version="1.0" encoding="UTF-8"?>
<!DOCTYPE svg PUBLIC "-//W3C//DTD SVG 1.1//EN" "http://www.w3.org/Graphics/SVG/1.1/DTD/svg11.dtd">
<!-- Creator: CorelDRAW -->
<svg xmlns="http://www.w3.org/2000/svg" xml:space="preserve" width="200px" height="50px" version="1.1" style="shape-rendering:geometricPrecision; text-rendering:geometricPrecision; image-rendering:optimizeQuality; fill-rule:evenodd; clip-rule:evenodd"
viewBox="0 0 400 100"
 xmlnsXlink="http://www.w3.org/1999/xlink"
 xmlnsXodm="http://www.corel.com/coreldraw/odm/2003">
 <defs>
  <style type="text/css">
    .fil0 {fill:#00AFEF;fill-rule:nonzero}
  </style>
 </defs>
 <g id="Layer_x0020_1">
  <metadata id="CorelCorpID_0Corel-Layer"/>
  <path class="fil0" d="M9.13 70.42l0 -40.84 15.33 0c3.12,0 5.62,0.4 7.51,1.23 1.88,0.83 3.36,2.1 4.42,3.82 1.07,1.72 1.61,3.51 1.61,5.4 0,1.74 -0.48,3.38 -1.42,4.92 -0.94,1.54 -2.37,2.79 -4.28,3.74 2.47,0.72 4.38,1.96 5.7,3.71 1.33,1.74 2,3.8 2,6.18 0,1.92 -0.42,3.69 -1.22,5.34 -0.81,1.64 -1.81,2.91 -3,3.8 -1.19,0.89 -2.68,1.56 -4.47,2.02 -1.79,0.46 -3.99,0.68 -6.6,0.68l-15.58 0 0 0zm5.42 -23.67l8.83 0c2.4,0 4.12,-0.16 5.16,-0.48 1.38,-0.41 2.41,-1.09 3.11,-2.04 0.69,-0.95 1.04,-2.14 1.04,-3.58 0,-1.35 -0.32,-2.55 -0.97,-3.58 -0.65,-1.04 -1.59,-1.75 -2.79,-2.13 -1.21,-0.38 -3.28,-0.57 -6.21,-0.57l-8.17 0 0 12.38 0 0zm0 18.88l10.17 0c1.75,0 2.98,-0.07 3.7,-0.2 1.23,-0.22 2.27,-0.59 3.11,-1.11 0.84,-0.52 1.52,-1.28 2.06,-2.28 0.55,-1 0.82,-2.15 0.82,-3.45 0,-1.53 -0.4,-2.86 -1.18,-3.99 -0.79,-1.13 -1.87,-1.92 -3.26,-2.38 -1.38,-0.45 -3.37,-0.68 -5.97,-0.68l-9.45 0 0 14.09 0 0zm31.21 -15.09c0,-6.77 1.82,-12.07 5.46,-15.91 3.65,-3.83 8.34,-5.74 14.1,-5.74 3.78,0 7.17,0.91 10.21,2.7 3.02,1.8 5.33,4.31 6.92,7.53 1.58,3.22 2.39,6.87 2.39,10.95 0,4.13 -0.84,7.84 -2.52,11.1 -1.67,3.27 -4.04,5.75 -7.1,7.42 -3.07,1.68 -6.38,2.52 -9.92,2.52 -3.85,0 -7.29,-0.93 -10.32,-2.79 -3.02,-1.85 -5.33,-4.38 -6.88,-7.59 -1.56,-3.21 -2.34,-6.6 -2.34,-10.19l0 0zm5.59 0.1c0,4.91 1.32,8.78 3.96,11.61 2.64,2.82 5.96,4.24 9.96,4.24 4.07,0 7.4,-1.43 10.04,-4.28 2.62,-2.85 3.93,-6.9 3.93,-12.15 0,-3.32 -0.56,-6.22 -1.68,-8.69 -1.12,-2.48 -2.77,-4.4 -4.92,-5.76 -2.17,-1.35 -4.6,-2.04 -7.29,-2.04 -3.82,0 -7.11,1.31 -9.87,3.94 -2.75,2.62 -4.13,6.99 -4.13,13.13l0 0zm38.78 -0.1c0,-6.77 1.83,-12.07 5.47,-15.91 3.64,-3.83 8.34,-5.74 14.1,-5.74 3.77,0 7.17,0.91 10.2,2.7 3.02,1.8 5.33,4.31 6.92,7.53 1.59,3.22 2.39,6.87 2.39,10.95 0,4.13 -0.84,7.84 -2.51,11.1 -1.68,3.27 -4.04,5.75 -7.1,7.42 -3.08,1.68 -6.39,2.52 -9.93,2.52 -3.85,0 -7.28,-0.93 -10.32,-2.79 -3.02,-1.85 -5.32,-4.38 -6.88,-7.59 -1.56,-3.21 -2.34,-6.6 -2.34,-10.19l0 0zm5.59 0.1c0,4.91 1.32,8.78 3.97,11.61 2.64,2.82 5.96,4.24 9.95,4.24 4.07,0 7.41,-1.43 10.04,-4.28 2.63,-2.85 3.94,-6.9 3.94,-12.15 0,-3.32 -0.56,-6.22 -1.69,-8.69 -1.12,-2.48 -2.76,-4.4 -4.92,-5.76 -2.17,-1.35 -4.59,-2.04 -7.28,-2.04 -3.83,0 -7.12,1.31 -9.87,3.94 -2.76,2.62 -4.14,6.99 -4.14,13.13l0 0zm40.21 19.78l0 -40.84 5.42 0 0 20.25 20.29 -20.25 7.32 0 -17.13 16.56 17.87 24.28 -7.13 0 -14.54 -20.61 -6.68 6.46 0 14.15 -5.42 0 0 0zm36.51 -13.12l5.08 -0.45c0.24,2.05 0.8,3.73 1.68,5.05 0.89,1.32 2.25,2.38 4.11,3.2 1.85,0.81 3.95,1.22 6.26,1.22 2.07,0 3.88,-0.31 5.46,-0.93 1.58,-0.61 2.75,-1.46 3.52,-2.54 0.77,-1.07 1.16,-2.24 1.16,-3.49 0,-1.28 -0.37,-2.39 -1.11,-3.35 -0.74,-0.95 -1.97,-1.75 -3.68,-2.41 -1.09,-0.41 -3.52,-1.08 -7.28,-1.98 -3.75,-0.91 -6.37,-1.75 -7.88,-2.55 -1.95,-1.03 -3.39,-2.3 -4.34,-3.81 -0.96,-1.52 -1.44,-3.22 -1.44,-5.09 0,-2.07 0.59,-4.01 1.76,-5.79 1.17,-1.8 2.87,-3.16 5.12,-4.09 2.25,-0.93 4.75,-1.4 7.5,-1.4 3.02,0 5.69,0.49 8,1.47 2.31,0.97 4.09,2.4 5.34,4.3 1.24,1.9 1.91,4.05 2,6.44l-5.19 0.4c-0.27,-2.58 -1.21,-4.53 -2.82,-5.84 -1.61,-1.32 -3.98,-1.97 -7.13,-1.97 -3.27,0 -5.65,0.59 -7.14,1.79 -1.5,1.2 -2.25,2.65 -2.25,4.34 0,1.46 0.54,2.67 1.59,3.62 1.05,0.94 3.76,1.92 8.15,2.91 4.39,1 7.4,1.86 9.04,2.6 2.37,1.1 4.13,2.48 5.26,4.16 1.13,1.67 1.69,3.6 1.69,5.79 0,2.18 -0.62,4.21 -1.86,6.13 -1.25,1.92 -3.02,3.42 -5.35,4.48 -2.34,1.06 -4.95,1.6 -7.87,1.6 -3.69,0 -6.78,-0.55 -9.27,-1.62 -2.5,-1.07 -4.45,-2.69 -5.86,-4.86 -1.43,-2.15 -2.17,-4.6 -2.25,-7.33l0 0zm50.2 13.12l0 -36.05 -13.46 0 0 -4.79 32.35 0 0 4.79 -13.47 0 0 36.05 -5.42 0zm15.76 0l15.67 -40.84 5.94 0 16.63 40.84 -6.16 0 -4.72 -12.38 -17.2 0 -4.43 12.38 -5.73 0zm11.75 -16.77l13.92 0 -4.26 -11.32c-1.28,-3.45 -2.25,-6.29 -2.93,-8.53 -0.56,2.66 -1.31,5.27 -2.25,7.86l-4.48 11.99zm59.87 2.44l5.42 1.37c-1.13,4.44 -3.17,7.82 -6.1,10.15 -2.94,2.33 -6.54,3.5 -10.79,3.5 -4.39,0 -7.96,-0.9 -10.72,-2.69 -2.76,-1.79 -4.85,-4.39 -6.29,-7.78 -1.43,-3.41 -2.16,-7.05 -2.16,-10.94 0,-4.25 0.81,-7.96 2.44,-11.13 1.63,-3.16 3.94,-5.57 6.93,-7.22 3,-1.64 6.3,-2.46 9.89,-2.46 4.09,0 7.52,1.04 10.3,3.12 2.78,2.08 4.72,5 5.81,8.77l-5.3 1.25c-0.94,-2.96 -2.32,-5.13 -4.12,-6.48 -1.79,-1.36 -4.06,-2.04 -6.78,-2.04 -3.13,0 -5.76,0.76 -7.86,2.26 -2.1,1.5 -3.58,3.53 -4.43,6.05 -0.86,2.54 -1.28,5.16 -1.28,7.85 0,3.47 0.5,6.5 1.51,9.09 1.01,2.59 2.58,4.52 4.71,5.81 2.12,1.28 4.43,1.92 6.91,1.92 3.02,0 5.57,-0.88 7.66,-2.62 2.09,-1.75 3.51,-4.33 4.25,-7.78l0 0zm11.88 14.33l0 -40.84 5.42 0 0 20.25 20.29 -20.25 7.32 0 -17.14 16.56 17.88 24.28 -7.13 0 -14.54 -20.61 -6.68 6.46 0 14.15 -5.42 0 0 0zm36.51 -13.12l5.07 -0.45c0.24,2.05 0.8,3.73 1.69,5.05 0.88,1.32 2.25,2.38 4.1,3.2 1.86,0.81 3.95,1.22 6.27,1.22 2.06,0 3.88,-0.31 5.46,-0.93 1.58,-0.61 2.75,-1.46 3.52,-2.54 0.77,-1.07 1.15,-2.24 1.15,-3.49 0,-1.28 -0.37,-2.39 -1.11,-3.35 -0.74,-0.95 -1.96,-1.75 -3.68,-2.41 -1.09,-0.41 -3.51,-1.08 -7.27,-1.98 -3.76,-0.91 -6.38,-1.75 -7.88,-2.55 -1.95,-1.03 -3.4,-2.3 -4.35,-3.81 -0.96,-1.52 -1.43,-3.22 -1.43,-5.09 0,-2.07 0.59,-4.01 1.76,-5.79 1.17,-1.8 2.87,-3.16 5.12,-4.09 2.25,-0.93 4.75,-1.4 7.49,-1.4 3.03,0 5.7,0.49 8.01,1.47 2.31,0.97 4.09,2.4 5.33,4.3 1.25,1.9 1.91,4.05 2.01,6.44l-5.19 0.4c-0.28,-2.58 -1.22,-4.53 -2.82,-5.84 -1.61,-1.32 -3.99,-1.97 -7.13,-1.97 -3.27,0 -5.65,0.59 -7.15,1.79 -1.49,1.2 -2.24,2.65 -2.24,4.34 0,1.46 0.53,2.67 1.59,3.62 1.04,0.94 3.75,1.92 8.15,2.91 4.39,1 7.4,1.86 9.04,2.6 2.36,1.1 4.12,2.48 5.25,4.16 1.14,1.67 1.7,3.6 1.7,5.79 0,2.18 -0.62,4.21 -1.87,6.13 -1.24,1.92 -3.02,3.42 -5.35,4.48 -2.33,1.06 -4.94,1.6 -7.86,1.6 -3.69,0 -6.78,-0.55 -9.27,-1.62 -2.5,-1.07 -4.45,-2.69 -5.87,-4.86 -1.43,-2.15 -2.17,-4.6 -2.24,-7.33l0 0z"/>
 </g>
</svg>
